<svg xmlns="http://www.w3.org/2000/svg" viewBox="0 0 24 24" width="24" height="24" color="currentColor" fill="none">
    <path fill-rule="evenodd" clip-rule="evenodd" d="M10.4695 13.53C10.6195 13.68 10.8095 13.75 10.9995 13.75C11.1895 13.75 11.3795 13.68 11.5295 13.53L20.2295 4.83002C20.2495 5.15002 20.2495 5.54 20.2495 6V10C20.2495 10.41 20.5895 10.75 20.9995 10.75C21.4095 10.75 21.7495 10.41 21.7495 10V6V5.99981C21.7495 4.42993 21.7495 3.56995 21.0895 2.90997C20.4295 2.25 19.5696 2.25 17.9997 2.25H17.9995H13.9995C13.5895 2.25 13.2495 2.59 13.2495 3C13.2495 3.41 13.5895 3.75 13.9995 3.75H17.9995C18.4595 3.75 18.8495 3.75002 19.1695 3.77002L10.4695 12.47C10.1795 12.76 10.1795 13.24 10.4695 13.53ZM10 21.75H12H12.083C15.5378 21.7501 17.2798 21.7501 18.51 20.51C19.75 19.26 19.75 17.5 19.75 14.0001V14V13C19.75 12.59 19.41 12.25 19 12.25C18.59 12.25 18.25 12.59 18.25 13V14C18.25 17.08 18.24 18.63 17.44 19.44C16.64 20.25 15.09 20.25 12 20.25H12H10C6.92 20.25 5.37 20.24 4.56 19.44C3.75 18.64 3.75 17.09 3.75 14V14V12C3.75 8.92 3.76 7.37 4.56 6.56C5.36 5.75 6.90999 5.75 9.99998 5.75H10H11C11.41 5.75 11.75 5.41 11.75 5C11.75 4.59 11.41 4.25 11 4.25H10L9.91701 4.25C6.46218 4.24992 4.72018 4.24988 3.48999 5.48999C2.25 6.73998 2.25 8.49997 2.25 11.9999V12V14L2.25 14.083C2.24992 17.5378 2.24988 19.2798 3.48999 20.51C4.73998 21.75 6.49998 21.75 9.99992 21.75H10Z" fill="currentColor" />
</svg>